<?xml version="1.0" encoding="UTF-8" standalone="no"?><svg xmlns="http://www.w3.org/2000/svg" xmlns:xlink="http://www.w3.org/1999/xlink" clip-rule="evenodd" stroke-miterlimit="10" viewBox="0 0 1024 768"><desc>SVG generated by Keynote</desc><defs></defs><g transform="matrix(1.00, 0.00, -0.00, -1.00, 0.0, 768.0)"><path d="M 0.0 768.0 L 1024.0 768.0 L 1024.0 0.0 L 0.0 0.0 Z M 0.0 768.0 " fill="#FEFFFF"></path><text xml:space="preserve" font-family="Helvetica-Light,Helvetica" font-size="15.0" fill="#000000" transform="matrix(1.00, 0.00, -0.00, -1.00, 65.0, 194.9)">R</text><text xml:space="preserve" font-family="Helvetica-Light,Helvetica" font-size="15.0" fill="#000000" transform="matrix(1.00, 0.00, -0.00, -1.00, 75.0, 194.9)">e</text><text xml:space="preserve" font-family="Helvetica-Light,Helvetica" font-size="15.0" fill="#000000" transform="matrix(1.00, 0.00, -0.00, -1.00, 83.3, 194.9)">a</text><text xml:space="preserve" font-family="Helvetica-Light,Helvetica" font-size="15.0" fill="#000000" transform="matrix(1.00, 0.00, -0.00, -1.00, 91.6, 194.9)">d</text><text xml:space="preserve" font-family="Helvetica-Light,Helvetica" font-size="15.0" fill="#000000" transform="matrix(1.00, 0.00, -0.00, -1.00, 100.8, 194.9)"> </text><text xml:space="preserve" font-family="Helvetica-Light,Helvetica" font-size="15.0" fill="#000000" transform="matrix(1.00, 0.00, -0.00, -1.00, 105.0, 194.9)">m</text><text xml:space="preserve" font-family="Helvetica-Light,Helvetica" font-size="15.0" fill="#000000" transform="matrix(1.00, 0.00, -0.00, -1.00, 117.5, 194.9)">o</text><text xml:space="preserve" font-family="Helvetica-Light,Helvetica" font-size="15.0" fill="#000000" transform="matrix(1.00, 0.00, -0.00, -1.00, 125.8, 194.9)">r</text><text xml:space="preserve" font-family="Helvetica-Light,Helvetica" font-size="15.0" fill="#000000" transform="matrix(1.00, 0.00, -0.00, -1.00, 130.5, 194.9)">e</text><text xml:space="preserve" font-family="Helvetica-Light,Helvetica" font-size="15.0" fill="#000000" transform="matrix(1.00, 0.00, -0.00, -1.00, 138.9, 194.9)">:</text><text xml:space="preserve" font-family="Helvetica-Light,Helvetica" font-size="15.0" fill="#000000" transform="matrix(1.00, 0.00, -0.00, -1.00, 143.0, 194.9)"> </text><text xml:space="preserve" font-family="Helvetica-Light,Helvetica" font-size="15.0" fill="#000000" transform="matrix(1.00, 0.00, -0.00, -1.00, 147.2, 194.9)">h</text><text xml:space="preserve" font-family="Helvetica-Light,Helvetica" font-size="15.0" fill="#000000" transform="matrix(1.00, 0.00, -0.00, -1.00, 155.6, 194.9)">t</text><text xml:space="preserve" font-family="Helvetica-Light,Helvetica" font-size="15.0" fill="#000000" transform="matrix(1.00, 0.00, -0.00, -1.00, 159.7, 194.9)">t</text><text xml:space="preserve" font-family="Helvetica-Light,Helvetica" font-size="15.0" fill="#000000" transform="matrix(1.00, 0.00, -0.00, -1.00, 163.9, 194.9)">p</text><text xml:space="preserve" font-family="Helvetica-Light,Helvetica" font-size="15.0" fill="#000000" transform="matrix(1.00, 0.00, -0.00, -1.00, 173.1, 194.9)">:</text><text xml:space="preserve" font-family="Helvetica-Light,Helvetica" font-size="15.0" fill="#000000" transform="matrix(1.00, 0.00, -0.00, -1.00, 177.2, 194.9)">/</text><text xml:space="preserve" font-family="Helvetica-Light,Helvetica" font-size="15.0" fill="#000000" transform="matrix(1.00, 0.00, -0.00, -1.00, 181.4, 194.9)">/</text><text xml:space="preserve" font-family="Helvetica-Light,Helvetica" font-size="15.0" fill="#000000" transform="matrix(1.00, 0.00, -0.00, -1.00, 185.6, 194.9)">w</text><text xml:space="preserve" font-family="Helvetica-Light,Helvetica" font-size="15.0" fill="#000000" transform="matrix(1.00, 0.00, -0.00, -1.00, 196.4, 194.9)">w</text><text xml:space="preserve" font-family="Helvetica-Light,Helvetica" font-size="15.0" fill="#000000" transform="matrix(1.00, 0.00, -0.00, -1.00, 207.2, 194.9)">w</text><text xml:space="preserve" font-family="Helvetica-Light,Helvetica" font-size="15.0" fill="#000000" transform="matrix(1.00, 0.00, -0.00, -1.00, 217.2, 194.9)">.</text><text xml:space="preserve" font-family="Helvetica-Light,Helvetica" font-size="15.0" fill="#000000" transform="matrix(1.00, 0.00, -0.00, -1.00, 221.4, 194.9)">d</text><text xml:space="preserve" font-family="Helvetica-Light,Helvetica" font-size="15.0" fill="#000000" transform="matrix(1.00, 0.00, -0.00, -1.00, 230.6, 194.9)">a</text><text xml:space="preserve" font-family="Helvetica-Light,Helvetica" font-size="15.0" fill="#000000" transform="matrix(1.00, 0.00, -0.00, -1.00, 238.9, 194.9)">i</text><text xml:space="preserve" font-family="Helvetica-Light,Helvetica" font-size="15.0" fill="#000000" transform="matrix(1.00, 0.00, -0.00, -1.00, 242.2, 194.9)">l</text><text xml:space="preserve" font-family="Helvetica-Light,Helvetica" font-size="15.0" fill="#000000" transform="matrix(1.00, 0.00, -0.00, -1.00, 245.6, 194.9)">y</text><text xml:space="preserve" font-family="Helvetica-Light,Helvetica" font-size="15.0" fill="#000000" transform="matrix(1.00, 0.00, -0.00, -1.00, 253.1, 194.9)">m</text><text xml:space="preserve" font-family="Helvetica-Light,Helvetica" font-size="15.0" fill="#000000" transform="matrix(1.00, 0.00, -0.00, -1.00, 265.6, 194.9)">a</text><text xml:space="preserve" font-family="Helvetica-Light,Helvetica" font-size="15.0" fill="#000000" transform="matrix(1.00, 0.00, -0.00, -1.00, 273.9, 194.9)">i</text><text xml:space="preserve" font-family="Helvetica-Light,Helvetica" font-size="15.0" fill="#000000" transform="matrix(1.00, 0.00, -0.00, -1.00, 277.2, 194.9)">l</text><text xml:space="preserve" font-family="Helvetica-Light,Helvetica" font-size="15.0" fill="#000000" transform="matrix(1.00, 0.00, -0.00, -1.00, 280.6, 194.9)">.</text><text xml:space="preserve" font-family="Helvetica-Light,Helvetica" font-size="15.0" fill="#000000" transform="matrix(1.00, 0.00, -0.00, -1.00, 284.7, 194.9)">c</text><text xml:space="preserve" font-family="Helvetica-Light,Helvetica" font-size="15.0" fill="#000000" transform="matrix(1.00, 0.00, -0.00, -1.00, 293.1, 194.9)">o</text><text xml:space="preserve" font-family="Helvetica-Light,Helvetica" font-size="15.0" fill="#000000" transform="matrix(1.00, 0.00, -0.00, -1.00, 301.4, 194.9)">.</text><text xml:space="preserve" font-family="Helvetica-Light,Helvetica" font-size="15.0" fill="#000000" transform="matrix(1.00, 0.00, -0.00, -1.00, 305.6, 194.9)">u</text><text xml:space="preserve" font-family="Helvetica-Light,Helvetica" font-size="15.0" fill="#000000" transform="matrix(1.00, 0.00, -0.00, -1.00, 313.9, 194.9)">k</text><text xml:space="preserve" font-family="Helvetica-Light,Helvetica" font-size="15.0" fill="#000000" transform="matrix(1.00, 0.00, -0.00, -1.00, 321.4, 194.9)">/</text><text xml:space="preserve" font-family="Helvetica-Light,Helvetica" font-size="15.0" fill="#000000" transform="matrix(1.00, 0.00, -0.00, -1.00, 325.6, 194.9)">f</text><text xml:space="preserve" font-family="Helvetica-Light,Helvetica" font-size="15.0" fill="#000000" transform="matrix(1.00, 0.00, -0.00, -1.00, 329.8, 194.9)">e</text><text xml:space="preserve" font-family="Helvetica-Light,Helvetica" font-size="15.0" fill="#000000" transform="matrix(1.00, 0.00, -0.00, -1.00, 338.1, 194.9)">m</text><text xml:space="preserve" font-family="Helvetica-Light,Helvetica" font-size="15.0" fill="#000000" transform="matrix(1.00, 0.00, -0.00, -1.00, 350.6, 194.9)">a</text><text xml:space="preserve" font-family="Helvetica-Light,Helvetica" font-size="15.0" fill="#000000" transform="matrix(1.00, 0.00, -0.00, -1.00, 358.9, 194.9)">i</text><text xml:space="preserve" font-family="Helvetica-Light,Helvetica" font-size="15.0" fill="#000000" transform="matrix(1.00, 0.00, -0.00, -1.00, 362.3, 194.9)">l</text><text xml:space="preserve" font-family="Helvetica-Light,Helvetica" font-size="15.0" fill="#000000" transform="matrix(1.00, 0.00, -0.00, -1.00, 365.6, 194.9)">/</text><text xml:space="preserve" font-family="Helvetica-Light,Helvetica" font-size="15.0" fill="#000000" transform="matrix(1.00, 0.00, -0.00, -1.00, 369.8, 194.9)">a</text><text xml:space="preserve" font-family="Helvetica-Light,Helvetica" font-size="15.0" fill="#000000" transform="matrix(1.00, 0.00, -0.00, -1.00, 378.1, 194.9)">r</text><text xml:space="preserve" font-family="Helvetica-Light,Helvetica" font-size="15.0" fill="#000000" transform="matrix(1.00, 0.00, -0.00, -1.00, 383.4, 194.9)">t</text><text xml:space="preserve" font-family="Helvetica-Light,Helvetica" font-size="15.0" fill="#000000" transform="matrix(1.00, 0.00, -0.00, -1.00, 387.5, 194.9)">i</text><text xml:space="preserve" font-family="Helvetica-Light,Helvetica" font-size="15.0" fill="#000000" transform="matrix(1.00, 0.00, -0.00, -1.00, 390.9, 194.9)">c</text><text xml:space="preserve" font-family="Helvetica-Light,Helvetica" font-size="15.0" fill="#000000" transform="matrix(1.00, 0.00, -0.00, -1.00, 399.2, 194.9)">l</text><text xml:space="preserve" font-family="Helvetica-Light,Helvetica" font-size="15.0" fill="#000000" transform="matrix(1.00, 0.00, -0.00, -1.00, 402.5, 194.9)">e</text><text xml:space="preserve" font-family="Helvetica-Light,Helvetica" font-size="15.0" fill="#000000" transform="matrix(1.00, 0.00, -0.00, -1.00, 410.9, 194.9)">-</text><text xml:space="preserve" font-family="Helvetica-Light,Helvetica" font-size="15.0" fill="#000000" transform="matrix(1.00, 0.00, -0.00, -1.00, 415.9, 194.9)">2</text><text xml:space="preserve" font-family="Helvetica-Light,Helvetica" font-size="15.0" fill="#000000" transform="matrix(1.00, 0.00, -0.00, -1.00, 424.2, 194.9)">4</text><text xml:space="preserve" font-family="Helvetica-Light,Helvetica" font-size="15.0" fill="#000000" transform="matrix(1.00, 0.00, -0.00, -1.00, 432.6, 194.9)">7</text><text xml:space="preserve" font-family="Helvetica-Light,Helvetica" font-size="15.0" fill="#000000" transform="matrix(1.00, 0.00, -0.00, -1.00, 440.9, 194.9)">1</text><text xml:space="preserve" font-family="Helvetica-Light,Helvetica" font-size="15.0" fill="#000000" transform="matrix(1.00, 0.00, -0.00, -1.00, 449.2, 194.9)">6</text><text xml:space="preserve" font-family="Helvetica-Light,Helvetica" font-size="15.0" fill="#000000" transform="matrix(1.00, 0.00, -0.00, -1.00, 457.6, 194.9)">5</text><text xml:space="preserve" font-family="Helvetica-Light,Helvetica" font-size="15.0" fill="#000000" transform="matrix(1.00, 0.00, -0.00, -1.00, 465.9, 194.9)">2</text><text xml:space="preserve" font-family="Helvetica-Light,Helvetica" font-size="15.0" fill="#000000" transform="matrix(1.00, 0.00, -0.00, -1.00, 474.3, 194.9)">/</text><text xml:space="preserve" font-family="Helvetica-Light,Helvetica" font-size="15.0" fill="#000000" transform="matrix(1.00, 0.00, -0.00, -1.00, 478.4, 194.9)">2</text><text xml:space="preserve" font-family="Helvetica-Light,Helvetica" font-size="15.0" fill="#000000" transform="matrix(1.00, 0.00, -0.00, -1.00, 486.8, 194.9)">3</text><text xml:space="preserve" font-family="Helvetica-Light,Helvetica" font-size="15.0" fill="#000000" transform="matrix(1.00, 0.00, -0.00, -1.00, 495.1, 194.9)">-</text><text xml:space="preserve" font-family="Helvetica-Light,Helvetica" font-size="15.0" fill="#000000" transform="matrix(1.00, 0.00, -0.00, -1.00, 500.1, 194.9)">o</text><text xml:space="preserve" font-family="Helvetica-Light,Helvetica" font-size="15.0" fill="#000000" transform="matrix(1.00, 0.00, -0.00, -1.00, 508.4, 194.9)">n</text><text xml:space="preserve" font-family="Helvetica-Light,Helvetica" font-size="15.0" fill="#000000" transform="matrix(1.00, 0.00, -0.00, -1.00, 516.8, 194.9)">l</text><text xml:space="preserve" font-family="Helvetica-Light,Helvetica" font-size="15.0" fill="#000000" transform="matrix(1.00, 0.00, -0.00, -1.00, 520.1, 194.9)">i</text><text xml:space="preserve" font-family="Helvetica-Light,Helvetica" font-size="15.0" fill="#000000" transform="matrix(1.00, 0.00, -0.00, -1.00, 523.4, 194.9)">n</text><text xml:space="preserve" font-family="Helvetica-Light,Helvetica" font-size="15.0" fill="#000000" transform="matrix(1.00, 0.00, -0.00, -1.00, 531.8, 194.9)">e</text><text xml:space="preserve" font-family="Helvetica-Light,Helvetica" font-size="15.0" fill="#000000" transform="matrix(1.00, 0.00, -0.00, -1.00, 540.1, 194.9)">-</text><text xml:space="preserve" font-family="Helvetica-Light,Helvetica" font-size="15.0" fill="#000000" transform="matrix(1.00, 0.00, -0.00, -1.00, 545.1, 194.9)">d</text><text xml:space="preserve" font-family="Helvetica-Light,Helvetica" font-size="15.0" fill="#000000" transform="matrix(1.00, 0.00, -0.00, -1.00, 554.3, 194.9)">a</text><text xml:space="preserve" font-family="Helvetica-Light,Helvetica" font-size="15.0" fill="#000000" transform="matrix(1.00, 0.00, -0.00, -1.00, 562.6, 194.9)">t</text><text xml:space="preserve" font-family="Helvetica-Light,Helvetica" font-size="15.0" fill="#000000" transform="matrix(1.00, 0.00, -0.00, -1.00, 566.8, 194.9)">i</text><text xml:space="preserve" font-family="Helvetica-Light,Helvetica" font-size="15.0" fill="#000000" transform="matrix(1.00, 0.00, -0.00, -1.00, 570.1, 194.9)">n</text><text xml:space="preserve" font-family="Helvetica-Light,Helvetica" font-size="15.0" fill="#000000" transform="matrix(1.00, 0.00, -0.00, -1.00, 578.5, 194.9)">g</text><text xml:space="preserve" font-family="Helvetica-Light,Helvetica" font-size="15.0" fill="#000000" transform="matrix(1.00, 0.00, -0.00, -1.00, 587.6, 194.9)">-</text><text xml:space="preserve" font-family="Helvetica-Light,Helvetica" font-size="15.0" fill="#000000" transform="matrix(1.00, 0.00, -0.00, -1.00, 592.6, 194.9)">s</text><text xml:space="preserve" font-family="Helvetica-Light,Helvetica" font-size="15.0" fill="#000000" transform="matrix(1.00, 0.00, -0.00, -1.00, 600.1, 194.9)">i</text><text xml:space="preserve" font-family="Helvetica-Light,Helvetica" font-size="15.0" fill="#000000" transform="matrix(1.00, 0.00, -0.00, -1.00, 603.5, 194.9)">n</text><text xml:space="preserve" font-family="Helvetica-Light,Helvetica" font-size="15.0" fill="#000000" transform="matrix(1.00, 0.00, -0.00, -1.00, 611.8, 194.9)">g</text><text xml:space="preserve" font-family="Helvetica-Light,Helvetica" font-size="15.0" fill="#000000" transform="matrix(1.00, 0.00, -0.00, -1.00, 621.0, 194.9)">l</text><text xml:space="preserve" font-family="Helvetica-Light,Helvetica" font-size="15.0" fill="#000000" transform="matrix(1.00, 0.00, -0.00, -1.00, 624.3, 194.9)">e</text><text xml:space="preserve" font-family="Helvetica-Light,Helvetica" font-size="15.0" fill="#000000" transform="matrix(1.00, 0.00, -0.00, -1.00, 632.6, 194.9)">s</text><text xml:space="preserve" font-family="Helvetica-Light,Helvetica" font-size="15.0" fill="#000000" transform="matrix(1.00, 0.00, -0.00, -1.00, 640.1, 194.9)">-</text><text xml:space="preserve" font-family="Helvetica-Light,Helvetica" font-size="15.0" fill="#000000" transform="matrix(1.00, 0.00, -0.00, -1.00, 645.1, 194.9)">e</text><text xml:space="preserve" font-family="Helvetica-Light,Helvetica" font-size="15.0" fill="#000000" transform="matrix(1.00, 0.00, -0.00, -1.00, 653.5, 194.9)">n</text><text xml:space="preserve" font-family="Helvetica-Light,Helvetica" font-size="15.0" fill="#000000" transform="matrix(1.00, 0.00, -0.00, -1.00, 661.8, 194.9)">d</text><text xml:space="preserve" font-family="Helvetica-Light,Helvetica" font-size="15.0" fill="#000000" transform="matrix(1.00, 0.00, -0.00, -1.00, 671.0, 194.9)">-</text><text xml:space="preserve" font-family="Helvetica-Light,Helvetica" font-size="15.0" fill="#000000" transform="matrix(1.00, 0.00, -0.00, -1.00, 676.0, 194.9)">M</text><text xml:space="preserve" font-family="Helvetica-Light,Helvetica" font-size="15.0" fill="#000000" transform="matrix(1.00, 0.00, -0.00, -1.00, 688.5, 194.9)">A</text><text xml:space="preserve" font-family="Helvetica-Light,Helvetica" font-size="15.0" fill="#000000" transform="matrix(1.00, 0.00, -0.00, -1.00, 698.5, 194.9)">R</text><text xml:space="preserve" font-family="Helvetica-Light,Helvetica" font-size="15.0" fill="#000000" transform="matrix(1.00, 0.00, -0.00, -1.00, 708.5, 194.9)">R</text><text xml:space="preserve" font-family="Helvetica-Light,Helvetica" font-size="15.0" fill="#000000" transform="matrix(1.00, 0.00, -0.00, -1.00, 717.9, 194.9)">Y</text><text xml:space="preserve" font-family="Helvetica-Light,Helvetica" font-size="15.0" fill="#000000" transform="matrix(1.00, 0.00, -0.00, -1.00, 727.1, 194.9)">I</text><text xml:space="preserve" font-family="Helvetica-Light,Helvetica" font-size="15.0" fill="#000000" transform="matrix(1.00, 0.00, -0.00, -1.00, 731.3, 194.9)">N</text><text xml:space="preserve" font-family="Helvetica-Light,Helvetica" font-size="15.0" fill="#000000" transform="matrix(1.00, 0.00, -0.00, -1.00, 742.1, 194.9)">G</text><text xml:space="preserve" font-family="Helvetica-Light,Helvetica" font-size="15.0" fill="#000000" transform="matrix(1.00, 0.00, -0.00, -1.00, 753.8, 194.9)">-</text><text xml:space="preserve" font-family="Helvetica-Light,Helvetica" font-size="15.0" fill="#000000" transform="matrix(1.00, 0.00, -0.00, -1.00, 758.8, 194.9)">p</text><text xml:space="preserve" font-family="Helvetica-Light,Helvetica" font-size="15.0" fill="#000000" transform="matrix(1.00, 0.00, -0.00, -1.00, 767.9, 194.9)">a</text><text xml:space="preserve" font-family="Helvetica-Light,Helvetica" font-size="15.0" fill="#000000" transform="matrix(1.00, 0.00, -0.00, -1.00, 776.3, 194.9)">r</text><text xml:space="preserve" font-family="Helvetica-Light,Helvetica" font-size="15.0" fill="#000000" transform="matrix(1.00, 0.00, -0.00, -1.00, 781.5, 194.9)">t</text><text xml:space="preserve" font-family="Helvetica-Light,Helvetica" font-size="15.0" fill="#000000" transform="matrix(1.00, 0.00, -0.00, -1.00, 785.7, 194.9)">n</text><text xml:space="preserve" font-family="Helvetica-Light,Helvetica" font-size="15.0" fill="#000000" transform="matrix(1.00, 0.00, -0.00, -1.00, 794.0, 194.9)">e</text><text xml:space="preserve" font-family="Helvetica-Light,Helvetica" font-size="15.0" fill="#000000" transform="matrix(1.00, 0.00, -0.00, -1.00, 802.4, 194.9)">r</text><text xml:space="preserve" font-family="Helvetica-Light,Helvetica" font-size="15.0" fill="#000000" transform="matrix(1.00, 0.00, -0.00, -1.00, 807.4, 194.9)">s</text><text xml:space="preserve" font-family="Helvetica-Light,Helvetica" font-size="15.0" fill="#000000" transform="matrix(1.00, 0.00, -0.00, -1.00, 814.9, 194.9)">.</text><text xml:space="preserve" font-family="Helvetica-Light,Helvetica" font-size="15.0" fill="#000000" transform="matrix(1.00, 0.00, -0.00, -1.00, 819.0, 194.9)">h</text><text xml:space="preserve" font-family="Helvetica-Light,Helvetica" font-size="15.0" fill="#000000" transform="matrix(1.00, 0.00, -0.00, -1.00, 827.4, 194.9)">t</text><text xml:space="preserve" font-family="Helvetica-Light,Helvetica" font-size="15.0" fill="#000000" transform="matrix(1.00, 0.00, -0.00, -1.00, 831.5, 194.9)">m</text><text xml:space="preserve" font-family="Helvetica-Light,Helvetica" font-size="15.0" fill="#000000" transform="matrix(1.00, 0.00, -0.00, -1.00, 844.0, 194.9)">l</text><text xml:space="preserve" font-family="Helvetica-Light,Helvetica" font-size="15.0" fill="#000000" transform="matrix(1.00, 0.00, -0.00, -1.00, 847.4, 194.9)">#</text><text xml:space="preserve" font-family="Helvetica-Light,Helvetica" font-size="15.0" fill="#000000" transform="matrix(1.00, 0.00, -0.00, -1.00, 855.7, 194.9)">i</text><text xml:space="preserve" font-family="Helvetica-Light,Helvetica" font-size="15.0" fill="#000000" transform="matrix(1.00, 0.00, -0.00, -1.00, 859.0, 194.9)">x</text><text xml:space="preserve" font-family="Helvetica-Light,Helvetica" font-size="15.0" fill="#000000" transform="matrix(1.00, 0.00, -0.00, -1.00, 866.5, 194.9)">z</text><text xml:space="preserve" font-family="Helvetica-Light,Helvetica" font-size="15.0" fill="#000000" transform="matrix(1.00, 0.00, -0.00, -1.00, 874.0, 194.9)">z</text><text xml:space="preserve" font-family="Helvetica-Light,Helvetica" font-size="15.0" fill="#000000" transform="matrix(1.00, 0.00, -0.00, -1.00, 881.5, 194.9)">2</text><text xml:space="preserve" font-family="Helvetica-Light,Helvetica" font-size="15.0" fill="#000000" transform="matrix(1.00, 0.00, -0.00, -1.00, 889.9, 194.9)">n</text><text xml:space="preserve" font-family="Helvetica-Light,Helvetica" font-size="15.0" fill="#000000" transform="matrix(1.00, 0.00, -0.00, -1.00, 898.2, 194.9)">G</text><text xml:space="preserve" font-family="Helvetica-Light,Helvetica" font-size="15.0" fill="#000000" transform="matrix(1.00, 0.00, -0.00, -1.00, 909.9, 194.9)">l</text><text xml:space="preserve" font-family="Helvetica-Light,Helvetica" font-size="15.0" fill="#000000" transform="matrix(1.00, 0.00, -0.00, -1.00, 913.2, 194.9)">z</text><text xml:space="preserve" font-family="Helvetica-Light,Helvetica" font-size="15.0" fill="#000000" transform="matrix(1.00, 0.00, -0.00, -1.00, 920.7, 194.9)">E</text><text xml:space="preserve" font-family="Helvetica-Light,Helvetica" font-size="15.0" fill="#000000" transform="matrix(1.00, 0.00, -0.00, -1.00, 929.9, 194.9)">g</text><text xml:space="preserve" font-family="Helvetica-Light,Helvetica" font-size="15.0" fill="#000000" transform="matrix(1.00, 0.00, -0.00, -1.00, 939.1, 194.9)">M</text><text xml:space="preserve" font-family="Helvetica-Light,Helvetica" font-size="15.0" fill="#000000" transform="matrix(1.00, 0.00, -0.00, -1.00, 951.5, 194.9)">v</text><text xml:space="preserve" font-family="Helvetica-Light,Helvetica" font-size="15.0" fill="#000000" transform="matrix(1.00, 0.00, -0.00, -1.00, 959.0, 194.9)"> </text><text xml:space="preserve" font-family="Helvetica-Light,Helvetica" font-size="15.0" fill="#000000" transform="matrix(1.00, 0.00, -0.00, -1.00, 963.2, 194.9)"> </text><text xml:space="preserve" font-family="Helvetica-Light,Helvetica" font-size="15.0" fill="#000000" transform="matrix(1.00, 0.00, -0.00, -1.00, 319.1, 176.9)">F</text><text xml:space="preserve" font-family="Helvetica-Light,Helvetica" font-size="15.0" fill="#000000" transform="matrix(1.00, 0.00, -0.00, -1.00, 327.4, 176.9)">o</text><text xml:space="preserve" font-family="Helvetica-Light,Helvetica" font-size="15.0" fill="#000000" transform="matrix(1.00, 0.00, -0.00, -1.00, 335.8, 176.9)">l</text><text xml:space="preserve" font-family="Helvetica-Light,Helvetica" font-size="15.0" fill="#000000" transform="matrix(1.00, 0.00, -0.00, -1.00, 339.1, 176.9)">l</text><text xml:space="preserve" font-family="Helvetica-Light,Helvetica" font-size="15.0" fill="#000000" transform="matrix(1.00, 0.00, -0.00, -1.00, 342.4, 176.9)">o</text><text xml:space="preserve" font-family="Helvetica-Light,Helvetica" font-size="15.0" fill="#000000" transform="matrix(1.00, 0.00, -0.00, -1.00, 350.8, 176.9)">w</text><text xml:space="preserve" font-family="Helvetica-Light,Helvetica" font-size="15.0" fill="#000000" transform="matrix(1.00, 0.00, -0.00, -1.00, 361.6, 176.9)"> </text><text xml:space="preserve" font-family="Helvetica-Light,Helvetica" font-size="15.0" fill="#000000" transform="matrix(1.00, 0.00, -0.00, -1.00, 365.8, 176.9)">u</text><text xml:space="preserve" font-family="Helvetica-Light,Helvetica" font-size="15.0" fill="#000000" transform="matrix(1.00, 0.00, -0.00, -1.00, 374.1, 176.9)">s</text><text xml:space="preserve" font-family="Helvetica-Light,Helvetica" font-size="15.0" fill="#000000" transform="matrix(1.00, 0.00, -0.00, -1.00, 381.6, 176.9)">:</text><text xml:space="preserve" font-family="Helvetica-Light,Helvetica" font-size="15.0" fill="#000000" transform="matrix(1.00, 0.00, -0.00, -1.00, 385.8, 176.9)"> </text><text xml:space="preserve" font-family="Helvetica-Light,Helvetica" font-size="15.0" fill="#000000" transform="matrix(1.00, 0.00, -0.00, -1.00, 389.9, 176.9)">@</text><text xml:space="preserve" font-family="Helvetica-Light,Helvetica" font-size="15.0" fill="#000000" transform="matrix(1.00, 0.00, -0.00, -1.00, 401.9, 176.9)">M</text><text xml:space="preserve" font-family="Helvetica-Light,Helvetica" font-size="15.0" fill="#000000" transform="matrix(1.00, 0.00, -0.00, -1.00, 414.4, 176.9)">a</text><text xml:space="preserve" font-family="Helvetica-Light,Helvetica" font-size="15.0" fill="#000000" transform="matrix(1.00, 0.00, -0.00, -1.00, 422.8, 176.9)">i</text><text xml:space="preserve" font-family="Helvetica-Light,Helvetica" font-size="15.0" fill="#000000" transform="matrix(1.00, 0.00, -0.00, -1.00, 426.1, 176.9)">l</text><text xml:space="preserve" font-family="Helvetica-Light,Helvetica" font-size="15.0" fill="#000000" transform="matrix(1.00, 0.00, -0.00, -1.00, 429.4, 176.9)">O</text><text xml:space="preserve" font-family="Helvetica-Light,Helvetica" font-size="15.0" fill="#000000" transform="matrix(1.00, 0.00, -0.00, -1.00, 441.1, 176.9)">n</text><text xml:space="preserve" font-family="Helvetica-Light,Helvetica" font-size="15.0" fill="#000000" transform="matrix(1.00, 0.00, -0.00, -1.00, 449.4, 176.9)">l</text><text xml:space="preserve" font-family="Helvetica-Light,Helvetica" font-size="15.0" fill="#000000" transform="matrix(1.00, 0.00, -0.00, -1.00, 452.8, 176.9)">i</text><text xml:space="preserve" font-family="Helvetica-Light,Helvetica" font-size="15.0" fill="#000000" transform="matrix(1.00, 0.00, -0.00, -1.00, 456.1, 176.9)">n</text><text xml:space="preserve" font-family="Helvetica-Light,Helvetica" font-size="15.0" fill="#000000" transform="matrix(1.00, 0.00, -0.00, -1.00, 464.4, 176.9)">e</text><text xml:space="preserve" font-family="Helvetica-Light,Helvetica" font-size="15.0" fill="#000000" transform="matrix(1.00, 0.00, -0.00, -1.00, 472.8, 176.9)"> </text><text xml:space="preserve" font-family="Helvetica-Light,Helvetica" font-size="15.0" fill="#000000" transform="matrix(1.00, 0.00, -0.00, -1.00, 476.9, 176.9)">o</text><text xml:space="preserve" font-family="Helvetica-Light,Helvetica" font-size="15.0" fill="#000000" transform="matrix(1.00, 0.00, -0.00, -1.00, 485.3, 176.9)">n</text><text xml:space="preserve" font-family="Helvetica-Light,Helvetica" font-size="15.0" fill="#000000" transform="matrix(1.00, 0.00, -0.00, -1.00, 493.6, 176.9)"> </text><text xml:space="preserve" font-family="Helvetica-Light,Helvetica" font-size="15.0" fill="#000000" transform="matrix(1.00, 0.00, -0.00, -1.00, 497.8, 176.9)">T</text><text xml:space="preserve" font-family="Helvetica-Light,Helvetica" font-size="15.0" fill="#000000" transform="matrix(1.00, 0.00, -0.00, -1.00, 504.9, 176.9)">w</text><text xml:space="preserve" font-family="Helvetica-Light,Helvetica" font-size="15.0" fill="#000000" transform="matrix(1.00, 0.00, -0.00, -1.00, 515.7, 176.9)">i</text><text xml:space="preserve" font-family="Helvetica-Light,Helvetica" font-size="15.0" fill="#000000" transform="matrix(1.00, 0.00, -0.00, -1.00, 519.0, 176.9)">t</text><text xml:space="preserve" font-family="Helvetica-Light,Helvetica" font-size="15.0" fill="#000000" transform="matrix(1.00, 0.00, -0.00, -1.00, 523.2, 176.9)">t</text><text xml:space="preserve" font-family="Helvetica-Light,Helvetica" font-size="15.0" fill="#000000" transform="matrix(1.00, 0.00, -0.00, -1.00, 527.4, 176.9)">e</text><text xml:space="preserve" font-family="Helvetica-Light,Helvetica" font-size="15.0" fill="#000000" transform="matrix(1.00, 0.00, -0.00, -1.00, 535.7, 176.9)">r</text><text xml:space="preserve" font-family="Helvetica-Light,Helvetica" font-size="15.0" fill="#000000" transform="matrix(1.00, 0.00, -0.00, -1.00, 540.7, 176.9)"> </text><text xml:space="preserve" font-family="Helvetica-Light,Helvetica" font-size="15.0" fill="#000000" transform="matrix(1.00, 0.00, -0.00, -1.00, 544.9, 176.9)">|</text><text xml:space="preserve" font-family="Helvetica-Light,Helvetica" font-size="15.0" fill="#000000" transform="matrix(1.00, 0.00, -0.00, -1.00, 548.2, 176.9)"> </text><text xml:space="preserve" font-family="Helvetica-Light,Helvetica" font-size="15.0" fill="#000000" transform="matrix(1.00, 0.00, -0.00, -1.00, 552.4, 176.9)">D</text><text xml:space="preserve" font-family="Helvetica-Light,Helvetica" font-size="15.0" fill="#000000" transform="matrix(1.00, 0.00, -0.00, -1.00, 563.2, 176.9)">a</text><text xml:space="preserve" font-family="Helvetica-Light,Helvetica" font-size="15.0" fill="#000000" transform="matrix(1.00, 0.00, -0.00, -1.00, 571.6, 176.9)">i</text><text xml:space="preserve" font-family="Helvetica-Light,Helvetica" font-size="15.0" fill="#000000" transform="matrix(1.00, 0.00, -0.00, -1.00, 574.9, 176.9)">l</text><text xml:space="preserve" font-family="Helvetica-Light,Helvetica" font-size="15.0" fill="#000000" transform="matrix(1.00, 0.00, -0.00, -1.00, 578.2, 176.9)">y</text><text xml:space="preserve" font-family="Helvetica-Light,Helvetica" font-size="15.0" fill="#000000" transform="matrix(1.00, 0.00, -0.00, -1.00, 585.7, 176.9)">M</text><text xml:space="preserve" font-family="Helvetica-Light,Helvetica" font-size="15.0" fill="#000000" transform="matrix(1.00, 0.00, -0.00, -1.00, 598.2, 176.9)">a</text><text xml:space="preserve" font-family="Helvetica-Light,Helvetica" font-size="15.0" fill="#000000" transform="matrix(1.00, 0.00, -0.00, -1.00, 606.5, 176.9)">i</text><text xml:space="preserve" font-family="Helvetica-Light,Helvetica" font-size="15.0" fill="#000000" transform="matrix(1.00, 0.00, -0.00, -1.00, 609.9, 176.9)">l</text><text xml:space="preserve" font-family="Helvetica-Light,Helvetica" font-size="15.0" fill="#000000" transform="matrix(1.00, 0.00, -0.00, -1.00, 613.2, 176.9)"> </text><text xml:space="preserve" font-family="Helvetica-Light,Helvetica" font-size="15.0" fill="#000000" transform="matrix(1.00, 0.00, -0.00, -1.00, 617.4, 176.9)">o</text><text xml:space="preserve" font-family="Helvetica-Light,Helvetica" font-size="15.0" fill="#000000" transform="matrix(1.00, 0.00, -0.00, -1.00, 625.7, 176.9)">n</text><text xml:space="preserve" font-family="Helvetica-Light,Helvetica" font-size="15.0" fill="#000000" transform="matrix(1.00, 0.00, -0.00, -1.00, 634.1, 176.9)"> </text><text xml:space="preserve" font-family="Helvetica-Light,Helvetica" font-size="15.0" fill="#000000" transform="matrix(1.00, 0.00, -0.00, -1.00, 638.2, 176.9)">F</text><text xml:space="preserve" font-family="Helvetica-Light,Helvetica" font-size="15.0" fill="#000000" transform="matrix(1.00, 0.00, -0.00, -1.00, 646.6, 176.9)">a</text><text xml:space="preserve" font-family="Helvetica-Light,Helvetica" font-size="15.0" fill="#000000" transform="matrix(1.00, 0.00, -0.00, -1.00, 654.9, 176.9)">c</text><text xml:space="preserve" font-family="Helvetica-Light,Helvetica" font-size="15.0" fill="#000000" transform="matrix(1.00, 0.00, -0.00, -1.00, 663.2, 176.9)">e</text><text xml:space="preserve" font-family="Helvetica-Light,Helvetica" font-size="15.0" fill="#000000" transform="matrix(1.00, 0.00, -0.00, -1.00, 671.6, 176.9)">b</text><text xml:space="preserve" font-family="Helvetica-Light,Helvetica" font-size="15.0" fill="#000000" transform="matrix(1.00, 0.00, -0.00, -1.00, 680.7, 176.9)">o</text><text xml:space="preserve" font-family="Helvetica-Light,Helvetica" font-size="15.0" fill="#000000" transform="matrix(1.00, 0.00, -0.00, -1.00, 689.1, 176.9)">o</text><text xml:space="preserve" font-family="Helvetica-Light,Helvetica" font-size="15.0" fill="#000000" transform="matrix(1.00, 0.00, -0.00, -1.00, 697.4, 176.9)">k</text><image xlink:href="84E6F9429776B18C0F8B94F4E87F7167.png" width="2008.00" height="708.00" transform="matrix(0.40, 0.00, -0.00, -0.40, 118.0, 503.0)"></image></g></svg>