<?xml version="1.0" encoding="UTF-8" standalone="no"?><svg xmlns="http://www.w3.org/2000/svg" xmlns:xlink="http://www.w3.org/1999/xlink" clip-rule="evenodd" stroke-miterlimit="10" viewBox="0 0 1024 768"><desc>SVG generated by Keynote</desc><defs></defs><g transform="matrix(1.00, 0.00, -0.00, -1.00, 0.0, 768.0)"><path d="M 0.0 768.0 L 1024.0 768.0 L 1024.0 0.0 L 0.0 0.0 Z M 0.0 768.0 " fill="#FEFFFF"></path><text xml:space="preserve" font-family="ShadowsIntoLight,Shadows Into Light" font-size="102.0" fill="#000000" transform="matrix(1.00, 0.00, -0.00, -1.00, 218.7, 473.5)">A</text><text xml:space="preserve" font-family="ShadowsIntoLight,Shadows Into Light" font-size="102.0" fill="#000000" transform="matrix(1.00, 0.00, -0.00, -1.00, 258.5, 473.5)">r</text><text xml:space="preserve" font-family="ShadowsIntoLight,Shadows Into Light" font-size="102.0" fill="#000000" transform="matrix(1.00, 0.00, -0.00, -1.00, 298.9, 473.5)">e</text><text xml:space="preserve" font-family="ShadowsIntoLight,Shadows Into Light" font-size="102.0" fill="#000000" transform="matrix(1.00, 0.00, -0.00, -1.00, 346.1, 473.5)">n</text><text xml:space="preserve" font-family="ShadowsIntoLight,Shadows Into Light" font-size="102.0" fill="#000000" transform="matrix(1.00, 0.00, -0.00, -1.00, 395.4, 473.5)">'</text><text xml:space="preserve" font-family="ShadowsIntoLight,Shadows Into Light" font-size="102.0" fill="#000000" transform="matrix(1.00, 0.00, -0.00, -1.00, 411.2, 473.5)">t</text><text xml:space="preserve" font-family="ShadowsIntoLight,Shadows Into Light" font-size="102.0" fill="#000000" transform="matrix(1.00, 0.00, -0.00, -1.00, 484.5, 473.5)">w</text><text xml:space="preserve" font-family="ShadowsIntoLight,Shadows Into Light" font-size="102.0" fill="#000000" transform="matrix(1.00, 0.00, -0.00, -1.00, 542.3, 473.5)">e</text><text xml:space="preserve" font-family="ShadowsIntoLight,Shadows Into Light" font-size="102.0" fill="#000000" transform="matrix(1.00, 0.00, -0.00, -1.00, 635.3, 473.5)">d</text><text xml:space="preserve" font-family="ShadowsIntoLight,Shadows Into Light" font-size="102.0" fill="#000000" transform="matrix(1.00, 0.00, -0.00, -1.00, 667.6, 473.5)">e</text><text xml:space="preserve" font-family="ShadowsIntoLight,Shadows Into Light" font-size="102.0" fill="#000000" transform="matrix(1.00, 0.00, -0.00, -1.00, 714.7, 473.5)">f</text><text xml:space="preserve" font-family="ShadowsIntoLight,Shadows Into Light" font-size="102.0" fill="#000000" transform="matrix(1.00, 0.00, -0.00, -1.00, 750.0, 473.5)">i</text><text xml:space="preserve" font-family="ShadowsIntoLight,Shadows Into Light" font-size="102.0" fill="#000000" transform="matrix(1.00, 0.00, -0.00, -1.00, 763.5, 473.5)">n</text><text xml:space="preserve" font-family="ShadowsIntoLight,Shadows Into Light" font-size="102.0" fill="#000000" transform="matrix(1.00, 0.00, -0.00, -1.00, 812.8, 473.5)">e</text><text xml:space="preserve" font-family="ShadowsIntoLight,Shadows Into Light" font-size="102.0" fill="#000000" transform="matrix(1.00, 0.00, -0.00, -1.00, 859.9, 473.5)">d</text><text xml:space="preserve" font-family="ShadowsIntoLight,Shadows Into Light" font-size="102.0" fill="#000000" transform="matrix(1.00, 0.00, -0.00, -1.00, 232.3, 309.5)">b</text><text xml:space="preserve" font-family="ShadowsIntoLight,Shadows Into Light" font-size="102.0" fill="#000000" transform="matrix(1.00, 0.00, -0.00, -1.00, 277.4, 309.5)">y</text><text xml:space="preserve" font-family="ShadowsIntoLight,Shadows Into Light" font-size="102.0" fill="#000000" transform="matrix(1.00, 0.00, -0.00, -1.00, 360.4, 309.5)">h</text><text xml:space="preserve" font-family="ShadowsIntoLight,Shadows Into Light" font-size="102.0" fill="#000000" transform="matrix(1.00, 0.00, -0.00, -1.00, 408.0, 309.5)">o</text><text xml:space="preserve" font-family="ShadowsIntoLight,Shadows Into Light" font-size="102.0" fill="#000000" transform="matrix(1.00, 0.00, -0.00, -1.00, 435.2, 309.5)">w</text><text xml:space="preserve" font-family="ShadowsIntoLight,Shadows Into Light" font-size="102.0" fill="#000000" transform="matrix(1.00, 0.00, -0.00, -1.00, 538.9, 309.5)">t</text><text xml:space="preserve" font-family="ShadowsIntoLight,Shadows Into Light" font-size="102.0" fill="#000000" transform="matrix(1.00, 0.00, -0.00, -1.00, 566.3, 309.5)">h</text><text xml:space="preserve" font-family="ShadowsIntoLight,Shadows Into Light" font-size="102.0" fill="#000000" transform="matrix(1.00, 0.00, -0.00, -1.00, 613.9, 309.5)">e</text><text xml:space="preserve" font-family="ShadowsIntoLight,Shadows Into Light" font-size="102.0" fill="#000000" transform="matrix(1.00, 0.00, -0.00, -1.00, 706.9, 309.5)">w</text><text xml:space="preserve" font-family="ShadowsIntoLight,Shadows Into Light" font-size="102.0" fill="#000000" transform="matrix(1.00, 0.00, -0.00, -1.00, 764.7, 309.5)">o</text><text xml:space="preserve" font-family="ShadowsIntoLight,Shadows Into Light" font-size="102.0" fill="#000000" transform="matrix(1.00, 0.00, -0.00, -1.00, 791.9, 309.5)">r</text><text xml:space="preserve" font-family="ShadowsIntoLight,Shadows Into Light" font-size="102.0" fill="#000000" transform="matrix(1.00, 0.00, -0.00, -1.00, 832.3, 309.5)">l</text><text xml:space="preserve" font-family="ShadowsIntoLight,Shadows Into Light" font-size="102.0" fill="#000000" transform="matrix(1.00, 0.00, -0.00, -1.00, 846.4, 309.5)">d</text><text xml:space="preserve" font-family="ShadowsIntoLight,Shadows Into Light" font-size="102.0" fill="#000000" transform="matrix(1.00, 0.00, -0.00, -1.00, 295.7, 145.5)">r</text><text xml:space="preserve" font-family="ShadowsIntoLight,Shadows Into Light" font-size="102.0" fill="#000000" transform="matrix(1.00, 0.00, -0.00, -1.00, 336.1, 145.5)">e</text><text xml:space="preserve" font-family="ShadowsIntoLight,Shadows Into Light" font-size="102.0" fill="#000000" transform="matrix(1.00, 0.00, -0.00, -1.00, 383.2, 145.5)">l</text><text xml:space="preserve" font-family="ShadowsIntoLight,Shadows Into Light" font-size="102.0" fill="#000000" transform="matrix(1.00, 0.00, -0.00, -1.00, 397.3, 145.5)">a</text><text xml:space="preserve" font-family="ShadowsIntoLight,Shadows Into Light" font-size="102.0" fill="#000000" transform="matrix(1.00, 0.00, -0.00, -1.00, 434.6, 145.5)">t</text><text xml:space="preserve" font-family="ShadowsIntoLight,Shadows Into Light" font-size="102.0" fill="#000000" transform="matrix(1.00, 0.00, -0.00, -1.00, 462.0, 145.5)">e</text><text xml:space="preserve" font-family="ShadowsIntoLight,Shadows Into Light" font-size="102.0" fill="#000000" transform="matrix(1.00, 0.00, -0.00, -1.00, 509.1, 145.5)">s</text><text xml:space="preserve" font-family="ShadowsIntoLight,Shadows Into Light" font-size="102.0" fill="#000000" transform="matrix(1.00, 0.00, -0.00, -1.00, 592.4, 145.5)">t</text><text xml:space="preserve" font-family="ShadowsIntoLight,Shadows Into Light" font-size="102.0" fill="#000000" transform="matrix(1.00, 0.00, -0.00, -1.00, 619.8, 145.5)">o</text><text xml:space="preserve" font-family="ShadowsIntoLight,Shadows Into Light" font-size="102.0" fill="#000000" transform="matrix(1.00, 0.00, -0.00, -1.00, 692.9, 145.5)">u</text><text xml:space="preserve" font-family="ShadowsIntoLight,Shadows Into Light" font-size="102.0" fill="#000000" transform="matrix(1.00, 0.00, -0.00, -1.00, 732.4, 145.5)">s</text><text xml:space="preserve" font-family="ShadowsIntoLight,Shadows Into Light" font-size="102.0" fill="#000000" transform="matrix(1.00, 0.00, -0.00, -1.00, 769.8, 145.5)">?</text></g></svg>