<?xml version="1.0" encoding="UTF-8" standalone="no"?><svg xmlns="http://www.w3.org/2000/svg" xmlns:xlink="http://www.w3.org/1999/xlink" clip-rule="evenodd" stroke-miterlimit="10" viewBox="0 0 1024 768"><desc>SVG generated by Keynote</desc><defs></defs><g transform="matrix(1.00, 0.00, -0.00, -1.00, 0.0, 768.0)"><path d="M 0.0 768.0 L 1024.0 768.0 L 1024.0 0.0 L 0.0 0.0 Z M 0.0 768.0 " fill="#FEFFFF"></path><text xml:space="preserve" font-family="Helvetica-Light,Helvetica" font-size="36.0" fill="#000000" transform="matrix(1.00, 0.00, -0.00, -1.00, 141.8, 319.8)">1</text><text xml:space="preserve" font-family="Helvetica-Light,Helvetica" font-size="36.0" fill="#000000" transform="matrix(1.00, 0.00, -0.00, -1.00, 161.8, 319.8)">/</text><text xml:space="preserve" font-family="Helvetica-Light,Helvetica" font-size="36.0" fill="#000000" transform="matrix(1.00, 0.00, -0.00, -1.00, 171.9, 319.8)">3</text><text xml:space="preserve" font-family="Helvetica-Light,Helvetica" font-size="36.0" fill="#000000" transform="matrix(1.00, 0.00, -0.00, -1.00, 191.9, 319.8)"> </text><text xml:space="preserve" font-family="Helvetica-Light,Helvetica" font-size="36.0" fill="#000000" transform="matrix(1.00, 0.00, -0.00, -1.00, 201.9, 319.8)">o</text><text xml:space="preserve" font-family="Helvetica-Light,Helvetica" font-size="36.0" fill="#000000" transform="matrix(1.00, 0.00, -0.00, -1.00, 221.9, 319.8)">f</text><text xml:space="preserve" font-family="Helvetica-Light,Helvetica" font-size="36.0" fill="#000000" transform="matrix(1.00, 0.00, -0.00, -1.00, 231.9, 319.8)"> </text><text xml:space="preserve" font-family="Helvetica-Light,Helvetica" font-size="36.0" fill="#000000" transform="matrix(1.00, 0.00, -0.00, -1.00, 241.9, 319.8)">t</text><text xml:space="preserve" font-family="Helvetica-Light,Helvetica" font-size="36.0" fill="#000000" transform="matrix(1.00, 0.00, -0.00, -1.00, 251.9, 319.8)">h</text><text xml:space="preserve" font-family="Helvetica-Light,Helvetica" font-size="36.0" fill="#000000" transform="matrix(1.00, 0.00, -0.00, -1.00, 271.9, 319.8)">e</text><text xml:space="preserve" font-family="Helvetica-Light,Helvetica" font-size="36.0" fill="#000000" transform="matrix(1.00, 0.00, -0.00, -1.00, 291.9, 319.8)"> </text><text xml:space="preserve" font-family="Helvetica-Light,Helvetica" font-size="36.0" fill="#000000" transform="matrix(1.00, 0.00, -0.00, -1.00, 302.0, 319.8)">w</text><text xml:space="preserve" font-family="Helvetica-Light,Helvetica" font-size="36.0" fill="#000000" transform="matrix(1.00, 0.00, -0.00, -1.00, 327.9, 319.8)">o</text><text xml:space="preserve" font-family="Helvetica-Light,Helvetica" font-size="36.0" fill="#000000" transform="matrix(1.00, 0.00, -0.00, -1.00, 348.0, 319.8)">r</text><text xml:space="preserve" font-family="Helvetica-Light,Helvetica" font-size="36.0" fill="#000000" transform="matrix(1.00, 0.00, -0.00, -1.00, 360.0, 319.8)">l</text><text xml:space="preserve" font-family="Helvetica-Light,Helvetica" font-size="36.0" fill="#000000" transform="matrix(1.00, 0.00, -0.00, -1.00, 367.9, 319.8)">d</text><text xml:space="preserve" font-family="Helvetica-Light,Helvetica" font-size="36.0" fill="#000000" transform="matrix(1.00, 0.00, -0.00, -1.00, 389.9, 319.8)">’</text><text xml:space="preserve" font-family="Helvetica-Light,Helvetica" font-size="36.0" fill="#000000" transform="matrix(1.00, 0.00, -0.00, -1.00, 395.3, 319.8)">s</text><text xml:space="preserve" font-family="Helvetica-Light,Helvetica" font-size="36.0" fill="#000000" transform="matrix(1.00, 0.00, -0.00, -1.00, 413.3, 319.8)"> </text><text xml:space="preserve" font-family="Helvetica-Light,Helvetica" font-size="36.0" fill="#000000" transform="matrix(1.00, 0.00, -0.00, -1.00, 423.3, 319.8)">p</text><text xml:space="preserve" font-family="Helvetica-Light,Helvetica" font-size="36.0" fill="#000000" transform="matrix(1.00, 0.00, -0.00, -1.00, 445.3, 319.8)">o</text><text xml:space="preserve" font-family="Helvetica-Light,Helvetica" font-size="36.0" fill="#000000" transform="matrix(1.00, 0.00, -0.00, -1.00, 465.3, 319.8)">p</text><text xml:space="preserve" font-family="Helvetica-Light,Helvetica" font-size="36.0" fill="#000000" transform="matrix(1.00, 0.00, -0.00, -1.00, 487.3, 319.8)">u</text><text xml:space="preserve" font-family="Helvetica-Light,Helvetica" font-size="36.0" fill="#000000" transform="matrix(1.00, 0.00, -0.00, -1.00, 507.3, 319.8)">l</text><text xml:space="preserve" font-family="Helvetica-Light,Helvetica" font-size="36.0" fill="#000000" transform="matrix(1.00, 0.00, -0.00, -1.00, 515.3, 319.8)">a</text><text xml:space="preserve" font-family="Helvetica-Light,Helvetica" font-size="36.0" fill="#000000" transform="matrix(1.00, 0.00, -0.00, -1.00, 535.3, 319.8)">t</text><text xml:space="preserve" font-family="Helvetica-Light,Helvetica" font-size="36.0" fill="#000000" transform="matrix(1.00, 0.00, -0.00, -1.00, 545.3, 319.8)">i</text><text xml:space="preserve" font-family="Helvetica-Light,Helvetica" font-size="36.0" fill="#000000" transform="matrix(1.00, 0.00, -0.00, -1.00, 553.3, 319.8)">o</text><text xml:space="preserve" font-family="Helvetica-Light,Helvetica" font-size="36.0" fill="#000000" transform="matrix(1.00, 0.00, -0.00, -1.00, 573.3, 319.8)">n</text><text xml:space="preserve" font-family="Helvetica-Light,Helvetica" font-size="36.0" fill="#000000" transform="matrix(1.00, 0.00, -0.00, -1.00, 593.3, 319.8)"> </text><text xml:space="preserve" font-family="Helvetica-Light,Helvetica" font-size="36.0" fill="#000000" transform="matrix(1.00, 0.00, -0.00, -1.00, 603.4, 319.8)">i</text><text xml:space="preserve" font-family="Helvetica-Light,Helvetica" font-size="36.0" fill="#000000" transform="matrix(1.00, 0.00, -0.00, -1.00, 611.3, 319.8)">s</text><text xml:space="preserve" font-family="Helvetica-Light,Helvetica" font-size="36.0" fill="#000000" transform="matrix(1.00, 0.00, -0.00, -1.00, 629.3, 319.8)"> </text><text xml:space="preserve" font-family="Helvetica-Light,Helvetica" font-size="36.0" fill="#000000" transform="matrix(1.00, 0.00, -0.00, -1.00, 639.4, 319.8)">o</text><text xml:space="preserve" font-family="Helvetica-Light,Helvetica" font-size="36.0" fill="#000000" transform="matrix(1.00, 0.00, -0.00, -1.00, 659.4, 319.8)">n</text><text xml:space="preserve" font-family="Helvetica-Light,Helvetica" font-size="36.0" fill="#000000" transform="matrix(1.00, 0.00, -0.00, -1.00, 679.4, 319.8)"> </text><text xml:space="preserve" font-family="Helvetica-Light,Helvetica" font-size="36.0" fill="#000000" transform="matrix(1.00, 0.00, -0.00, -1.00, 689.4, 319.8)">t</text><text xml:space="preserve" font-family="Helvetica-Light,Helvetica" font-size="36.0" fill="#000000" transform="matrix(1.00, 0.00, -0.00, -1.00, 699.4, 319.8)">h</text><text xml:space="preserve" font-family="Helvetica-Light,Helvetica" font-size="36.0" fill="#000000" transform="matrix(1.00, 0.00, -0.00, -1.00, 719.4, 319.8)">e</text><text xml:space="preserve" font-family="Helvetica-Light,Helvetica" font-size="36.0" fill="#000000" transform="matrix(1.00, 0.00, -0.00, -1.00, 739.4, 319.8)"> </text><text xml:space="preserve" font-family="Helvetica-Light,Helvetica" font-size="36.0" fill="#000000" transform="matrix(1.00, 0.00, -0.00, -1.00, 749.4, 319.8)">I</text><text xml:space="preserve" font-family="Helvetica-Light,Helvetica" font-size="36.0" fill="#000000" transform="matrix(1.00, 0.00, -0.00, -1.00, 759.4, 319.8)">n</text><text xml:space="preserve" font-family="Helvetica-Light,Helvetica" font-size="36.0" fill="#000000" transform="matrix(1.00, 0.00, -0.00, -1.00, 779.5, 319.8)">t</text><text xml:space="preserve" font-family="Helvetica-Light,Helvetica" font-size="36.0" fill="#000000" transform="matrix(1.00, 0.00, -0.00, -1.00, 789.5, 319.8)">e</text><text xml:space="preserve" font-family="Helvetica-Light,Helvetica" font-size="36.0" fill="#000000" transform="matrix(1.00, 0.00, -0.00, -1.00, 809.5, 319.8)">r</text><text xml:space="preserve" font-family="Helvetica-Light,Helvetica" font-size="36.0" fill="#000000" transform="matrix(1.00, 0.00, -0.00, -1.00, 822.1, 319.8)">n</text><text xml:space="preserve" font-family="Helvetica-Light,Helvetica" font-size="36.0" fill="#000000" transform="matrix(1.00, 0.00, -0.00, -1.00, 842.1, 319.8)">e</text><text xml:space="preserve" font-family="Helvetica-Light,Helvetica" font-size="36.0" fill="#000000" transform="matrix(1.00, 0.00, -0.00, -1.00, 862.2, 319.8)">t</text><text xml:space="preserve" font-family="Helvetica-Light,Helvetica" font-size="36.0" fill="#000000" transform="matrix(1.00, 0.00, -0.00, -1.00, 872.2, 319.8)">.</text><text xml:space="preserve" font-family="Helvetica-Light,Helvetica" font-size="36.0" fill="#000000" transform="matrix(1.00, 0.00, -0.00, -1.00, 882.2, 319.8)"> </text><text xml:space="preserve" font-family="Helvetica-Light,Helvetica" font-size="36.0" fill="#000000" transform="matrix(1.00, 0.00, -0.00, -1.00, 892.2, 319.8)"> </text><text xml:space="preserve" font-family="Helvetica-Light,Helvetica" font-size="15.0" fill="#000000" transform="matrix(1.00, 0.00, -0.00, -1.00, 392.6, 296.9)">S</text><text xml:space="preserve" font-family="Helvetica-Light,Helvetica" font-size="15.0" fill="#000000" transform="matrix(1.00, 0.00, -0.00, -1.00, 401.8, 296.9)">o</text><text xml:space="preserve" font-family="Helvetica-Light,Helvetica" font-size="15.0" fill="#000000" transform="matrix(1.00, 0.00, -0.00, -1.00, 410.1, 296.9)">u</text><text xml:space="preserve" font-family="Helvetica-Light,Helvetica" font-size="15.0" fill="#000000" transform="matrix(1.00, 0.00, -0.00, -1.00, 418.5, 296.9)">r</text><text xml:space="preserve" font-family="Helvetica-Light,Helvetica" font-size="15.0" fill="#000000" transform="matrix(1.00, 0.00, -0.00, -1.00, 423.2, 296.9)">c</text><text xml:space="preserve" font-family="Helvetica-Light,Helvetica" font-size="15.0" fill="#000000" transform="matrix(1.00, 0.00, -0.00, -1.00, 431.5, 296.9)">e</text><text xml:space="preserve" font-family="Helvetica-Light,Helvetica" font-size="15.0" fill="#000000" transform="matrix(1.00, 0.00, -0.00, -1.00, 439.9, 296.9)">:</text><text xml:space="preserve" font-family="Helvetica-Light,Helvetica" font-size="15.0" fill="#000000" transform="matrix(1.00, 0.00, -0.00, -1.00, 444.1, 296.9)"> </text><text xml:space="preserve" font-family="Helvetica-Light,Helvetica" font-size="15.0" fill="#000000" transform="matrix(1.00, 0.00, -0.00, -1.00, 448.2, 296.9)">I</text><text xml:space="preserve" font-family="Helvetica-Light,Helvetica" font-size="15.0" fill="#000000" transform="matrix(1.00, 0.00, -0.00, -1.00, 452.4, 296.9)">C</text><text xml:space="preserve" font-family="Helvetica-Light,Helvetica" font-size="15.0" fill="#000000" transform="matrix(1.00, 0.00, -0.00, -1.00, 463.2, 296.9)">T</text><text xml:space="preserve" font-family="Helvetica-Light,Helvetica" font-size="15.0" fill="#000000" transform="matrix(1.00, 0.00, -0.00, -1.00, 471.6, 296.9)"> </text><text xml:space="preserve" font-family="Helvetica-Light,Helvetica" font-size="15.0" fill="#000000" transform="matrix(1.00, 0.00, -0.00, -1.00, 475.7, 296.9)">F</text><text xml:space="preserve" font-family="Helvetica-Light,Helvetica" font-size="15.0" fill="#000000" transform="matrix(1.00, 0.00, -0.00, -1.00, 483.2, 296.9)">A</text><text xml:space="preserve" font-family="Helvetica-Light,Helvetica" font-size="15.0" fill="#000000" transform="matrix(1.00, 0.00, -0.00, -1.00, 493.2, 296.9)">C</text><text xml:space="preserve" font-family="Helvetica-Light,Helvetica" font-size="15.0" fill="#000000" transform="matrix(1.00, 0.00, -0.00, -1.00, 504.1, 296.9)">T</text><text xml:space="preserve" font-family="Helvetica-Light,Helvetica" font-size="15.0" fill="#000000" transform="matrix(1.00, 0.00, -0.00, -1.00, 512.4, 296.9)">S</text><text xml:space="preserve" font-family="Helvetica-Light,Helvetica" font-size="15.0" fill="#000000" transform="matrix(1.00, 0.00, -0.00, -1.00, 521.6, 296.9)"> </text><text xml:space="preserve" font-family="Helvetica-Light,Helvetica" font-size="15.0" fill="#000000" transform="matrix(1.00, 0.00, -0.00, -1.00, 525.8, 296.9)">&amp;</text><text xml:space="preserve" font-family="Helvetica-Light,Helvetica" font-size="15.0" fill="#000000" transform="matrix(1.00, 0.00, -0.00, -1.00, 535.8, 296.9)"> </text><text xml:space="preserve" font-family="Helvetica-Light,Helvetica" font-size="15.0" fill="#000000" transform="matrix(1.00, 0.00, -0.00, -1.00, 539.9, 296.9)">F</text><text xml:space="preserve" font-family="Helvetica-Light,Helvetica" font-size="15.0" fill="#000000" transform="matrix(1.00, 0.00, -0.00, -1.00, 548.3, 296.9)">i</text><text xml:space="preserve" font-family="Helvetica-Light,Helvetica" font-size="15.0" fill="#000000" transform="matrix(1.00, 0.00, -0.00, -1.00, 551.6, 296.9)">g</text><text xml:space="preserve" font-family="Helvetica-Light,Helvetica" font-size="15.0" fill="#000000" transform="matrix(1.00, 0.00, -0.00, -1.00, 560.8, 296.9)">u</text><text xml:space="preserve" font-family="Helvetica-Light,Helvetica" font-size="15.0" fill="#000000" transform="matrix(1.00, 0.00, -0.00, -1.00, 569.1, 296.9)">r</text><text xml:space="preserve" font-family="Helvetica-Light,Helvetica" font-size="15.0" fill="#000000" transform="matrix(1.00, 0.00, -0.00, -1.00, 573.8, 296.9)">e</text><text xml:space="preserve" font-family="Helvetica-Light,Helvetica" font-size="15.0" fill="#000000" transform="matrix(1.00, 0.00, -0.00, -1.00, 582.2, 296.9)">s</text><text xml:space="preserve" font-family="Helvetica-Light,Helvetica" font-size="15.0" fill="#000000" transform="matrix(1.00, 0.00, -0.00, -1.00, 589.7, 296.9)">,</text><text xml:space="preserve" font-family="Helvetica-Light,Helvetica" font-size="15.0" fill="#000000" transform="matrix(1.00, 0.00, -0.00, -1.00, 593.8, 296.9)"> </text><text xml:space="preserve" font-family="Helvetica-Light,Helvetica" font-size="15.0" fill="#000000" transform="matrix(1.00, 0.00, -0.00, -1.00, 598.0, 296.9)">2</text><text xml:space="preserve" font-family="Helvetica-Light,Helvetica" font-size="15.0" fill="#000000" transform="matrix(1.00, 0.00, -0.00, -1.00, 606.3, 296.9)">0</text><text xml:space="preserve" font-family="Helvetica-Light,Helvetica" font-size="15.0" fill="#000000" transform="matrix(1.00, 0.00, -0.00, -1.00, 614.7, 296.9)">1</text><text xml:space="preserve" font-family="Helvetica-Light,Helvetica" font-size="15.0" fill="#000000" transform="matrix(1.00, 0.00, -0.00, -1.00, 623.0, 296.9)">1</text><text xml:space="preserve" font-family="Helvetica-Light,Helvetica" font-size="15.0" fill="#000000" transform="matrix(1.00, 0.00, -0.00, -1.00, 631.4, 296.9)"> </text><text xml:space="preserve" font-family="Helvetica-Light,Helvetica" font-size="15.0" fill="#000000" transform="matrix(1.00, 0.00, -0.00, -1.00, 635.5, 296.9)"> </text></g></svg>